# 3ds Max Wavefront OBJ Exporter v0.99 - (c)2007 guruware
# File Created: 13.04.2026 23:41:35

mtllib SM_BumpyRqmp.mtl

#
# object Box011
#

v  -3439.9160 -577.6106 -0.0000
v  -2560.0840 -577.6106 -0.0000
v  -2560.0840 -577.6106 -750.0000
v  -3439.9160 -577.6106 -750.0000
v  0.0000 0.0000 -0.0000
v  0.0000 0.0000 -750.0000
v  -1108.9490 -337.0590 -750.0000
v  -1108.9490 -337.0590 -0.0000
v  -4190.1997 -482.9182 -750.0000
v  -4190.1997 -482.9182 -0.0000
v  -1457.3782 -175.0165 -750.0000
v  -1809.8003 -223.3240 -419.3503
v  -1809.8003 -482.9182 -0.0000
v  -6000.0000 0.0000 -3000.0000
v  -6000.0000 0.0000 -2250.0000
v  -4891.0508 -337.0590 -2250.0000
v  -4891.0508 -337.0590 -3000.0000
v  -2560.0840 -577.6106 -3000.0000
v  -2560.0840 -577.6106 -2250.0000
v  -1809.8003 -482.9182 -2250.0000
v  -1809.8003 -482.9182 -3000.0000
v  -4542.6221 -175.0166 -2250.0000
v  -4190.1997 -223.3240 -2580.6497
v  -4190.1997 -482.9182 -3000.0000
v  -2381.5142 -577.6106 -1500.0000
v  -3439.9160 -577.6106 -2250.0000
v  -3643.3979 -577.6106 -1500.0000
v  0.0000 0.0000 -1500.0000
v  0.0000 0.0000 -2250.0000
v  -1108.9490 -337.0590 -2250.0000
v  -1287.5189 -337.0590 -1500.0000
v  -3877.4185 -253.1122 -2250.0000
v  -4190.1997 -268.8238 -1919.3503
v  -4190.1997 -482.9182 -1500.0000
v  -1809.8003 -482.9182 -1500.0000
v  -6000.0000 0.0000 -1500.0000
v  -6000.0000 0.0000 -750.0000
v  -4891.0508 -337.0590 -750.0000
v  -4687.5688 -337.0590 -1500.0000
v  -2122.5815 -253.1122 -750.0000
v  -1809.8003 -257.4910 -1080.6497
v  -3439.9160 -577.6106 -3000.0000
v  0.0000 0.0000 -3000.0000
v  -1108.9490 -337.0590 -3000.0000
v  -6000.0000 0.0000 -0.0000
v  -4891.0508 -337.0590 -0.0000
# 46 vertices

vn 0.0627 0.9980 -0.0000
vn -0.0627 0.9980 -0.0000
vn -0.2919 0.9559 -0.0324
vn 0.0575 0.9983 -0.0071
vn -0.2908 0.9568 -0.0000
vn 0.0435 0.9991 -0.0020
vn -0.2475 0.9689 -0.0000
vn 0.1646 0.9864 -0.0000
vn 0.2597 0.9651 -0.0354
vn -0.1050 0.9140 0.3919
vn -0.1387 0.8421 0.5213
vn 0.2908 0.9568 -0.0000
vn -0.0399 0.9992 0.0013
vn 0.2475 0.9689 -0.0000
vn -0.0581 0.9983 0.0064
vn -0.1646 0.9864 -0.0000
vn -0.2545 0.9659 0.0465
vn 0.1050 0.9140 -0.3919
vn 0.1387 0.8421 -0.5213
vn -0.0941 0.9956 -0.0000
vn 0.2889 0.9567 0.0361
vn 0.0999 0.9950 -0.0000
vn -0.2533 0.9674 -0.0000
vn -0.2505 0.9676 -0.0301
vn -0.2623 0.9650 -0.0000
vn 0.4410 0.8963 0.0459
vn 0.1121 0.9191 0.3778
vn 0.2189 0.9490 0.2270
vn -0.2088 0.9487 -0.2376
vn 0.2487 0.9686 -0.0000
vn 0.2509 0.9674 0.0344
vn 0.2678 0.9635 -0.0000
vn -0.4469 0.8939 -0.0348
vn -0.1108 0.9172 -0.3827
# 34 vertex normals

vt 0.0000 0.5733 0.0000
vt 0.0000 0.4267 0.0000
vt 0.2495 0.4267 0.0000
vt 0.2495 0.5733 0.0000
vt 0.0000 0.0000 0.0000
vt 0.2495 0.0000 0.0000
vt 0.2495 0.1848 0.0000
vt 0.0000 0.1861 0.0000
vt 0.2495 0.6984 0.0000
vt 0.0000 0.6984 0.0000
vt 0.2495 0.2429 0.0000
vt 0.1395 0.3016 0.0000
vt 0.0000 0.3016 0.0000
vt 1.0000 1.0000 0.0000
vt 0.7486 1.0000 0.0000
vt 0.7486 0.8152 0.0000
vt 1.0000 0.8152 0.0000
vt 1.0000 0.4267 0.0000
vt 0.7486 0.4267 0.0000
vt 0.7486 0.3016 0.0000
vt 1.0000 0.3016 0.0000
vt 0.7486 0.7571 0.0000
vt 0.8586 0.6984 0.0000
vt 1.0000 0.6984 0.0000
vt 0.4991 0.3969 0.0000
vt 0.7486 0.5733 0.0000
vt 0.4991 0.6072 0.0000
vt 0.4991 0.0000 0.0000
vt 0.7486 0.0000 0.0000
vt 0.7486 0.1848 0.0000
vt 0.4991 0.2146 0.0000
vt 0.7486 0.6462 0.0000
vt 0.6386 0.6984 0.0000
vt 0.4991 0.6984 0.0000
vt 0.4991 0.3016 0.0000
vt 0.4991 1.0000 0.0000
vt 0.2495 1.0000 0.0000
vt 0.2495 0.8152 0.0000
vt 0.4991 0.7813 0.0000
vt 0.2495 0.3538 0.0000
vt 0.3595 0.3016 0.0000
vt 1.0000 0.5733 0.0000
vt 1.0000 0.0000 0.0000
vt 1.0000 0.1848 0.0000
vt 0.0000 1.0000 0.0000
vt 0.0000 0.8152 0.0000
# 46 texture coords

o Box011
g Box011
usemtl 01___Default
s 2
f 1/1/1 2/2/2 3/3/3 4/4/4 
f 5/5/5 6/6/5 7/7/6 8/8/7 
f 1/1/1 4/4/4 9/9/8 10/10/8 
f 8/8/7 7/7/6 11/11/9 12/12/10 13/13/11 
f 14/14/12 15/15/12 16/16/13 17/17/14 
f 18/18/2 19/19/15 20/20/16 21/21/16 
f 17/17/14 16/16/13 22/22/17 23/23/18 24/24/19 
f 25/25/20 19/19/15 26/26/21 27/27/22 
f 28/28/23 29/29/5 30/30/24 31/31/25 
f 27/27/22 26/26/21 32/32/26 33/33/27 34/34/28 
f 31/31/25 30/30/24 20/20/16 35/35/29 
f 36/36/30 37/37/12 38/38/31 39/39/32 
f 25/25/20 3/3/3 40/40/33 41/41/34 35/35/29 
f 39/39/32 38/38/31 9/9/8 34/34/28 
f 3/3/3 25/25/20 27/27/22 4/4/4 
f 6/6/5 28/28/23 31/31/25 7/7/6 
f 4/4/4 27/27/22 34/34/28 9/9/8 
f 7/7/6 31/31/25 35/35/29 41/41/34 11/11/9 
f 15/15/12 36/36/30 39/39/32 16/16/13 
f 19/19/15 25/25/20 35/35/29 20/20/16 
f 16/16/13 39/39/32 34/34/28 33/33/27 22/22/17 
f 19/19/15 18/18/2 42/42/1 26/26/21 
f 29/29/5 43/43/5 44/44/7 30/30/24 
f 26/26/21 42/42/1 24/24/19 23/23/18 32/32/26 
f 30/30/24 44/44/7 21/21/16 20/20/16 
f 37/37/12 45/45/12 46/46/14 38/38/31 
f 3/3/3 2/2/2 13/13/11 12/12/10 40/40/33 
f 38/38/31 46/46/14 10/10/8 9/9/8 
f 12/12/10 11/11/9 41/41/34 40/40/33 
f 23/23/18 22/22/17 33/33/27 32/32/26 
# 30 polygons

