# 3ds Max Wavefront OBJ Exporter v0.99 - (c)2007 guruware
# File Created: 13.04.2026 23:46:21

mtllib SM_BumpyUniformUpRamp.mtl

#
# object Box010
#

v  -3216.5432 -364.8203 -0.0000
v  -2783.4568 -364.8203 -0.0000
v  -2783.4568 -364.8203 -3000.0000
v  -3216.5432 -364.8203 -3000.0000
v  0.0000 0.0000 -0.0000
v  0.0000 0.0000 -3000.0000
v  -1108.9490 -621.2306 -3000.0000
v  -1108.9490 -621.2306 -0.0000
v  -3629.5366 -482.8859 -0.0000
v  -3629.5366 -482.8859 -3000.0000
v  -4190.1997 -831.9780 -3000.0000
v  -4190.1997 -831.9780 -0.0000
v  -1809.8003 -831.9780 -3000.0000
v  -1809.8003 -831.9780 -0.0000
v  -6000.0000 0.0000 -3000.0000
v  -6000.0000 0.0000 -0.0000
v  -4891.0508 -621.2306 -0.0000
v  -4891.0508 -621.2306 -3000.0000
v  -2370.4634 -482.8859 -3000.0000
v  -2370.4634 -482.8859 -0.0000
v  -2568.5220 -394.3367 -0.0000
v  -2568.5220 -394.3367 -3000.0000
v  -3431.4780 -394.3367 -3000.0000
v  -3431.4780 -394.3367 -0.0000
# 24 vertices

vn -0.0682 0.9977 -0.0000
vn 0.0682 0.9977 -0.0000
vn -0.4887 0.8724 -0.0000
vn -0.3907 0.9205 -0.0000
vn -0.4694 0.8830 -0.0000
vn -0.1320 0.9912 -0.0000
vn 0.1320 0.9912 -0.0000
vn 0.4887 0.8724 -0.0000
vn 0.3907 0.9205 -0.0000
vn 0.4694 0.8830 -0.0000
vn 0.2749 0.9615 -0.0000
vn -0.2749 0.9615 -0.0000
# 12 vertex normals

vt 0.0000 0.5361 0.0000
vt 0.0000 0.4639 0.0000
vt 1.0000 0.4639 0.0000
vt 1.0000 0.5361 0.0000
vt 0.0000 0.0000 0.0000
vt 1.0000 0.0000 0.0000
vt 1.0000 0.1848 0.0000
vt 0.0000 0.1848 0.0000
vt 0.0000 0.6049 0.0000
vt 1.0000 0.6049 0.0000
vt 1.0000 0.6984 0.0000
vt 0.0000 0.6984 0.0000
vt 1.0000 0.3016 0.0000
vt 0.0000 0.3016 0.0000
vt 1.0000 1.0000 0.0000
vt 0.0000 1.0000 0.0000
vt 0.0000 0.8152 0.0000
vt 1.0000 0.8152 0.0000
vt 1.0000 0.3951 0.0000
vt 0.0000 0.3951 0.0000
vt 0.0000 0.4281 0.0000
vt 1.0000 0.4281 0.0000
vt 1.0000 0.5719 0.0000
vt 0.0000 0.5719 0.0000
# 24 texture coords

o Box010
g Box010
usemtl 01___Default
s 1
f 1/1/1 2/2/2 3/3/2 4/4/1 
s 2
f 5/5/3 6/6/3 7/7/4 8/8/4 
s 1
f 9/9/5 10/10/5 11/11/6 12/12/6 
s 2
f 8/8/4 7/7/4 13/13/7 14/14/7 
f 15/15/8 16/16/8 17/17/9 18/18/9 
s 1
f 19/19/10 20/20/10 14/14/7 13/13/7 
s 2
f 18/18/9 17/17/9 12/12/6 11/11/6 
s 1
f 3/3/2 2/2/2 21/21/11 22/22/11 
f 1/1/1 4/4/1 23/23/12 24/24/12 
f 10/10/5 9/9/5 24/24/12 23/23/12 
f 20/20/10 19/19/10 22/22/11 21/21/11 
# 11 polygons

