# 3ds Max Wavefront OBJ Exporter v0.99 - (c)2007 guruware
# File Created: 13.04.2026 23:45:59

mtllib SM_BumpyUniformDownRamp.mtl

#
# object Box007
#

v  -3354.3704 -385.8308 -0.0000
v  -2645.6296 -385.8308 -0.0000
v  -2645.6296 -385.8308 -3000.0000
v  -3354.3704 -385.8308 -3000.0000
v  0.0000 0.0000 -0.0000
v  0.0000 0.0000 -3000.0000
v  -905.1353 341.3019 -3000.0000
v  -905.1353 341.3019 -0.0000
v  -4190.1997 -35.4126 -3000.0000
v  -4190.1997 -35.4126 -0.0000
v  -1291.8168 299.8088 -0.0000
v  -1291.8168 299.8088 -3000.0000
v  -1809.8003 -35.4126 -3000.0000
v  -1809.8003 -35.4126 -0.0000
v  -1101.3561 347.3951 -3000.0000
v  -1101.3561 347.3951 -0.0000
v  -4708.1831 299.8088 -0.0000
v  -4708.1831 299.8088 -3000.0000
v  -4898.6440 347.3951 -3000.0000
v  -4898.6440 347.3951 -0.0000
v  -6000.0000 0.0000 -3000.0000
v  -6000.0000 0.0000 -0.0000
v  -5094.8647 341.3019 -0.0000
v  -5094.8647 341.3019 -3000.0000
# 24 vertices

vn 0.1972 0.9804 -0.0000
vn -0.1972 0.9804 -0.0000
vn 0.3528 0.9357 -0.0000
vn 0.1946 0.9809 -0.0000
vn 0.4668 0.8844 -0.0000
vn -0.3983 0.9173 -0.0000
vn -0.4668 0.8844 -0.0000
vn -0.1067 0.9943 -0.0000
vn 0.3982 0.9173 -0.0000
vn 0.1067 0.9943 -0.0000
vn -0.3528 0.9357 -0.0000
vn -0.1946 0.9809 -0.0000
# 12 vertex normals

vt 0.0000 0.5599 0.0000
vt 0.0000 0.4421 0.0000
vt 1.0000 0.4421 0.0000
vt 1.0000 0.5599 0.0000
vt 0.0000 0.0010 0.0000
vt 1.0000 0.0010 0.0000
vt 1.0000 0.1526 0.0000
vt 0.0000 0.1526 0.0000
vt 1.0000 0.6990 0.0000
vt 0.0000 0.6990 0.0000
vt 0.0000 0.2169 0.0000
vt 1.0000 0.2169 0.0000
vt 1.0000 0.3030 0.0000
vt 0.0000 0.3030 0.0000
vt 1.0000 0.1852 0.0000
vt 0.0000 0.1852 0.0000
vt 0.0000 0.7851 0.0000
vt 1.0000 0.7851 0.0000
vt 1.0000 0.8168 0.0000
vt 0.0000 0.8168 0.0000
vt 1.0000 1.0000 0.0000
vt 0.0000 1.0000 0.0000
vt 0.0000 0.8494 0.0000
vt 1.0000 0.8494 0.0000
# 24 texture coords

o Box007
g Box007
usemtl 01___Default
s 1
f 1/1/1 2/2/2 3/3/2 4/4/1 
f 5/5/3 6/6/3 7/7/4 8/8/4 
f 1/1/1 4/4/1 9/9/5 10/10/5 
f 11/11/6 12/12/6 13/13/7 14/14/7 
f 8/8/4 7/7/4 15/15/8 16/16/8 
f 17/17/9 18/18/9 19/19/10 20/20/10 
f 21/21/11 22/22/11 23/23/12 24/24/12 
f 3/3/2 2/2/2 14/14/7 13/13/7 
f 18/18/9 17/17/9 10/10/5 9/9/5 
f 24/24/12 23/23/12 20/20/10 19/19/10 
f 12/12/6 11/11/6 16/16/8 15/15/8 
# 11 polygons

