# 3ds Max Wavefront OBJ Exporter v0.99 - (c)2007 guruware
# File Created: 13.04.2026 23:47:28

mtllib SM_DownRamp.mtl

#
# object Box004
#

v  -3439.9160 -1000.0000 -0.0000
v  -2560.0840 -1000.0000 -0.0000
v  -2560.0840 -1000.0000 -3000.0000
v  -3439.9160 -1000.0000 -3000.0000
v  0.0000 0.0000 -0.0000
v  0.0000 0.0000 -3000.0000
v  -1108.9490 -621.2306 -3000.0000
v  -1108.9490 -621.2306 -0.0000
v  -4190.1997 -905.3076 -3000.0000
v  -4190.1997 -905.3076 -0.0000
v  -1809.8003 -905.3076 -3000.0000
v  -1809.8003 -905.3076 -0.0000
v  -6000.0000 0.0000 -3000.0000
v  -6000.0000 0.0000 -0.0000
v  -4891.0508 -621.2306 -0.0000
v  -4891.0508 -621.2306 -3000.0000
# 16 vertices

vn 0.0627 0.9980 -0.0000
vn -0.0627 0.9980 -0.0000
vn -0.4887 0.8724 -0.0000
vn -0.4330 0.9014 -0.0000
vn 0.2526 0.9676 -0.0000
vn -0.2526 0.9676 -0.0000
vn 0.4887 0.8724 -0.0000
vn 0.4330 0.9014 -0.0000
# 8 vertex normals

vt 0.0000 0.5733 0.0000
vt 0.0000 0.4267 0.0000
vt 1.0000 0.4267 0.0000
vt 1.0000 0.5733 0.0000
vt 0.0000 0.0000 0.0000
vt 1.0000 0.0000 0.0000
vt 1.0000 0.1848 0.0000
vt 0.0000 0.1848 0.0000
vt 1.0000 0.6984 0.0000
vt 0.0000 0.6984 0.0000
vt 1.0000 0.3016 0.0000
vt 0.0000 0.3016 0.0000
vt 1.0000 1.0000 0.0000
vt 0.0000 1.0000 0.0000
vt 0.0000 0.8152 0.0000
vt 1.0000 0.8152 0.0000
# 16 texture coords

o Box004
g Box004
usemtl 01___Default
s 2
f 1/1/1 2/2/2 3/3/2 4/4/1 
f 5/5/3 6/6/3 7/7/4 8/8/4 
f 1/1/1 4/4/1 9/9/5 10/10/5 
f 8/8/4 7/7/4 11/11/6 12/12/6 
f 13/13/7 14/14/7 15/15/8 16/16/8 
f 3/3/2 2/2/2 12/12/6 11/11/6 
f 16/16/8 15/15/8 10/10/5 9/9/5 
# 7 polygons

